<svg version="1.1" xmlns="http://www.w3.org/2000/svg" xmlns:xlink="http://www.w3.org/1999/xlink" x="0px" y="0px" viewBox="0 0 1000 1000" enable-background="new 0 0 1000 1000" xml:space="preserve">
  <g id="comments">
    <path fill="currentColor" d="M263.1,331.6c33.8,0,61.2,27.4,61.2,61.2c0,33.9-27.4,61.3-61.2,61.3c-33.8,0-61.3-27.4-61.3-61.3C201.9,359,229.3,331.6,263.1,331.6z"/>
    <path fill="currentColor" d="M508.2,331.6c33.9,0,61.3,27.4,61.3,61.2c0,33.9-27.4,61.3-61.3,61.3c-33.9,0-61.2-27.4-61.2-61.3C446.9,359,474.3,331.6,508.2,331.6z"/>
    <path fill="currentColor" d="M753.2,331.6c33.8,0,61.3,27.4,61.3,61.2c0,33.9-27.5,61.3-61.3,61.3c-33.9,0-61.2-27.4-61.2-61.3C691.9,359,719.3,331.6,753.2,331.6z"/>
    <path fill="currentColor" d="M845.9,25.3H154.1C74.5,25.3,10,89.7,10,169.1v460.4c0,79.4,64.5,143.9,144.1,143.9h288.3v201.4l331.5-201.4h72.1c79.6,0,144.1-64.4,144.1-143.9V169.1C990,89.7,925.5,25.3,845.9,25.3z M928.8,629.5c0,45.5-37.2,82.6-82.9,82.6h-72.1h-17.2l-14.6,8.9L503.6,865.9v-92.5v-61.3h-61.3H154.1c-45.7,0-82.9-37.1-82.9-82.6V169.1c0-45.5,37.2-82.5,82.9-82.5h691.9c45.7,0,82.9,37,82.9,82.5L928.8,629.5L928.8,629.5z"/>
  </g>
</svg>
